# xmcd
#
# Track frame offsets: 
#        150
#        27629
#        55378
#        79215
#        107381
#        136337
#        162187
#        191804
#        222160
#        245258
#
# Disc length: 3547 seconds
#
# Revision: 0
# Processed by: cddbd v1.5.2PL0 Copyright (c) Steve Scherf et al.
# Submitted via: ExactAudioCopy v1.0b3
#
DISCID=880dd90a
DTITLE=Duy Khanh - Dieu Buon Chia Xa
DYEAR=1900
DGENRE=
TTITLE0=Dieu buon chia xa
TTITLE1=Xa dau tinh hong
TTITLE2=Em khong buon nua chi oi
TTITLE3=Ngay xua len nam len ba
TTITLE4=Mot ban tay
TTITLE5=Trom nhin nhau
TTITLE6=Thu khoc tinh sau
TTITLE7=Dem bo vo
TTITLE8=Sac hoa mau nho
TTITLE9=Chieu cuoi tuan
EXTD=
EXTT0=
EXTT1=
EXTT2=
EXTT3=
EXTT4=
EXTT5=
EXTT6=
EXTT7=
EXTT8=
EXTT9=
PLAYORDER=
